<svg xmlns="http://www.w3.org/2000/svg" viewBox="0 0 183.16 174.21"><defs><style>.cls-1,.cls-13{fill:#c1d5e8;}.cls-1,.cls-2,.cls-3,.cls-5,.cls-7,.cls-8{fill-rule:evenodd;}.cls-2,.cls-9{fill:#c64f69;}.cls-3{fill:#ff8c9b;}.cls-4,.cls-7{fill:#fff;}.cls-12,.cls-5{fill:#e8bd54;}.cls-6,.cls-8{fill:#334f70;}.cls-10{opacity:0.26;}.cls-11{fill:#25364f;}</style></defs><g id="Layer_2" data-name="Layer 2"><g id="Layer_1-2" data-name="Layer 1"><g id="Group_132" data-name="Group 132"><g id="Group_107" data-name="Group 107"><g id="Group_101" data-name="Group 101"><path id="Path_173" data-name="Path 173" class="cls-1" d="M82.26,102.44l-1.13,4.73c-.56,2.33,2.81,5.14,7.53,6.27s9,.15,9.55-2.18l1.13-4.74Z"/><path id="Path_174" data-name="Path 174" class="cls-2" d="M82.26,102.44l-1.13,4.73c-.56,2.33,2.81,5.14,7.53,6.27s9,.15,9.55-2.18l1.13-4.74Z"/><path id="Path_175" data-name="Path 175" class="cls-3" d="M99.34,106.52c-.56,2.33-4.83,3.31-9.55,2.18s-8.08-3.93-7.53-6.26,4.83-3.31,9.55-2.18S99.89,104.19,99.34,106.52Z"/><path id="Path_176" data-name="Path 176" class="cls-4" d="M99.28,105.25a4,4,0,0,0-.56-1.09c-1-.17-2.37-.27-3.65-.38-2.17-.18-4.7-.38-6.79-.47a38.32,38.32,0,0,0-6.06-.07,3,3,0,0,0,.29.94c3.34.75,9.17.94,13.84,1C97.23,105.22,98.38,105.32,99.28,105.25Z"/></g><g id="Group_103" data-name="Group 103"><path id="Path_177" data-name="Path 177" class="cls-5" d="M13.62,6.4c1.84-.48,2.86,1.52,3.92,3.13a129.53,129.53,0,0,1,7.28,13.22C27.92,29,30.55,35,33.66,41.22s6,12.77,9.07,18.37a37.38,37.38,0,0,0,5.6,8.06c2.28,2.4,4.87,4.42,7.06,6.61C60,78.9,63,85.06,65.58,91.5c2.84,7.15,4.81,12.84,7.5,19.82,3.81,9.89,8.11,18.91,11.53,29.56,1.83,5.68,4,13.24.12,17.47-3.59,3.92-12.4,6.73-17.81,2.69-2.13-1.6-4.25-4.94-5.71-7.5-4.78-8.41-8.49-18.12-12.43-27-2.74-6.15-5.71-12.5-8.29-18-2.7-5.78-5.81-12.09-7.16-19.15-.77-4-.42-7.94-.23-12.32a38.43,38.43,0,0,0-1.56-11.53C29.75,58.78,26.92,52.34,24.71,46s-4.77-12.7-7.06-19.26c-1.49-4.26-3.38-10.12-4.59-15.11-.22-.91-1.31-4.63.22-5.16Z"/><path id="Path_178" data-name="Path 178" class="cls-6" d="M22.58,29.91l3-1.23c.4-.16,1-.38,1.76-.65-.82-1.75-1.66-3.5-2.54-5.28A129.53,129.53,0,0,0,17.54,9.53c-1.06-1.61-2.08-3.61-3.92-3.13l-.34.11c-1.53.53-.44,4.24-.22,5.15,1.21,5,3.1,10.86,4.59,15.12.54,1.55,1.1,3.09,1.66,4.61a3.27,3.27,0,0,1,.36-.25A30.92,30.92,0,0,1,22.58,29.91Z"/><path id="Path_179" data-name="Path 179" class="cls-6" d="M66.92,161c5.41,4,14.22,1.23,17.81-2.69,3.85-4.23,1.71-11.8-.12-17.47-1.6-5-3.38-9.56-5.21-14.07-1.57,1.23-3,2.47-4.64,3.55a44.25,44.25,0,0,1-6.61,3.47,58.1,58.1,0,0,1-11.42,3.69,25.81,25.81,0,0,1-3,.48,156.16,156.16,0,0,0,7.49,15.53C62.67,156.1,64.79,159.44,66.92,161Z"/><g id="Group_102" data-name="Group 102"><path id="Path_180" data-name="Path 180" class="cls-7" d="M72.46,156c-2.5,1.35,3.48,5.63,3.94,2.87C76.63,157.44,73.83,156.21,72.46,156Z"/><path id="Path_181" data-name="Path 181" class="cls-7" d="M67.51,155.81c.58.14,1.86.11,2-1.08.25-1.56-2.2-3.58-3-4.56-1-1.2-2.34-3.9-4.07-3.59-2.46.45.17,4.13,1.13,5.36.51.66,1.07,1.25,1.53,1.78C65.91,154.63,66.38,155.55,67.51,155.81Z"/></g><path id="Path_182" data-name="Path 182" class="cls-7" d="M51,87.47a2.88,2.88,0,0,1,1-.11c1.87.22,3.41,2.5,4.36,4,1.13,1.8,1.76,3.21,2.91,5.48.87,1.7,2.16,3.91,2.92,5.49s2.23,4.48,1.68,6.38c-.47,1.62-2.92,2.77-4.37,3.47-1.87.91-4.05,2-6.16,1.46-1.63-.43-2.67-2.86-3.58-4.59a99.37,99.37,0,0,1-5-11.31c-.68-1.77-2.07-4.51-1.68-6.16.35-1.44,2.3-2,3.47-2.57A13.23,13.23,0,0,1,51,87.47Z"/><path id="Path_183" data-name="Path 183" class="cls-7" d="M60.65,118.37c4.81-1.11,5.24,6.24.9,6a3.71,3.71,0,0,1-3.13-2.57,2.84,2.84,0,0,1,2-3.44Z"/></g><g id="Group_106" data-name="Group 106"><g id="Group_104" data-name="Group 104"><path id="Path_184" data-name="Path 184" class="cls-8" d="M13.14,100.94a27,27,0,0,0-1.57,3c-1.3,3.23-1.23,7.89,3.21,8.19a7.38,7.38,0,0,0,4.94-2.19,39,39,0,0,0,5.75-8.15c1.75-3.14,3.92-7.24,3.84-9.6a5,5,0,0,0-5.09-4.92h-.11c-2.92.12-4.73,3.24-6.81,6.51C15.77,96.15,14.53,98.43,13.14,100.94Z"/><path id="Path_185" data-name="Path 185" class="cls-9" d="M11.57,103.9a27,27,0,0,1,1.57-3c.73-1.32,1.42-2.58,2.13-3.82,1.27,3.23,4,7,9.58,5.7a36.42,36.42,0,0,1-5.13,7.08,7.43,7.43,0,0,1-4.94,2.19C10.34,111.79,10.26,107.13,11.57,103.9Z"/></g><g id="Group_105" data-name="Group 105"><path id="Path_186" data-name="Path 186" class="cls-7" d="M18.57,96.14c0,1-.95,2.52-2,3.92-.44.6-1.15,1.56-1.73,1.23s-.06-1.61.17-2a11.94,11.94,0,0,1,2.75-3.52A.91.91,0,0,1,18.57,96.14Z"/><path id="Path_187" data-name="Path 187" class="cls-7" d="M18,101c1.59.53-.14,3.76-1.29,3-.5-.35-.24-2.23.42-2.84A.86.86,0,0,1,18,101Z"/></g></g></g><g id="Group_117" data-name="Group 117"><g id="Group_108" data-name="Group 108"><path id="Path_188" data-name="Path 188" class="cls-1" d="M167.33,22.85l-2.25,4.31c-1.1,2.13,1.49,5.67,5.79,7.9s8.68,2.33,9.79.2L182.9,31Z"/><path id="Path_189" data-name="Path 189" class="cls-2" d="M167.33,22.85l-2.25,4.31c-1.1,2.13,1.49,5.67,5.79,7.9s8.68,2.33,9.79.2L182.9,31Z"/><path id="Path_190" data-name="Path 190" class="cls-3" d="M182.91,31c-1.11,2.13-5.49,2-9.79-.2s-6.89-5.78-5.79-7.9,5.49-2,9.79.2S184,28.83,182.91,31Z"/><path id="Path_191" data-name="Path 191" class="cls-4" d="M183.15,29.7a3.76,3.76,0,0,0-.28-1.19c-1-.42-2.22-.84-3.44-1.25-2.06-.71-4.47-1.51-6.48-2.1a37.89,37.89,0,0,0-5.85-1.55,3,3,0,0,0,.05,1c3.06,1.54,8.67,3.14,13.17,4.36C181.17,29.18,182.27,29.56,183.15,29.7Z"/></g><g id="Group_109" data-name="Group 109"><path id="Path_192" data-name="Path 192" class="cls-1" d="M138.83,4.57,139,9.44c.06,2.39,4,4.23,8.88,4.11s8.73-2.17,8.67-4.57l-.13-4.86Z"/><path id="Path_193" data-name="Path 193" class="cls-2" d="M138.83,4.57,139,9.44c.06,2.39,4,4.23,8.88,4.11s8.73-2.17,8.67-4.57l-.13-4.86Z"/><path id="Path_194" data-name="Path 194" class="cls-3" d="M156.38,4.12c.06,2.4-3.82,4.44-8.66,4.57S138.89,7,138.83,4.57,142.65.13,147.49,0,156.32,1.72,156.38,4.12Z"/><path id="Path_195" data-name="Path 195" class="cls-4" d="M156,2.91a3.52,3.52,0,0,0-.82-.9c-1,.1-2.35.34-3.62.56-2.14.38-4.63.85-6.68,1.3A39.44,39.44,0,0,0,139,5.36a2.81,2.81,0,0,0,.52.84c3.42-.14,9.1-1.45,13.64-2.57C154,3.41,155.15,3.21,156,2.91Z"/></g><g id="Group_115" data-name="Group 115"><path id="Path_196" data-name="Path 196" class="cls-8" d="M36,30c3.27,1.15.72,4.06-1.31,5.07a33,33,0,0,1-4.22,1.48c-2.58.91-6,2.47-8.09,3.47a78.66,78.66,0,0,0-7.6,4.14c-2.31,1.45-5.14,3.2-6.53,5.66-3,5.28-2.65,13.5.7,16.59,3,2.79,9.89,3.63,15.64,4.19,2.92.28,5.5.65,8.86,1.17,2.72.42,6.71.61,6.63,3.15-.1,3.26-5.8,3.06-9,2.91a74.78,74.78,0,0,1-11.18-1.08c-7-1.38-14.12-3.77-17.28-8.28C.37,65.24-.34,59.92.15,55c1.32-13.46,10.69-16.7,19.33-20,2.62-1,5.26-1.89,7.87-2.7C30.22,31.43,33.06,30.66,36,30Z"/><path id="Path_197" data-name="Path 197" class="cls-8" d="M131.34,20.24c-2.48,2.06.68,3.77,2.78,4a32.06,32.06,0,0,0,4.16-.07c2.54,0,6,.21,8.18.41a76.89,76.89,0,0,1,8,1.16c2.48.52,5.52,1.13,7.53,2.83,4.3,3.64,6.66,10.93,4.73,14.7-1.74,3.41-7.45,6.36-12.29,8.7-2.45,1.19-4.6,2.35-7.35,3.88-2.24,1.25-5.66,2.7-4.77,4.9,1.14,2.8,6.05.79,8.78-.36a70.85,70.85,0,0,0,9.4-4.56c5.68-3.46,11.1-7.85,12.41-12.8.94-3.57-.16-8.44-2.16-12.55-5.5-11.31-14.72-11.12-23.33-11.21-2.6,0-5.19.06-7.74.19C136.85,19.61,134.13,19.85,131.34,20.24Z"/><g id="Group_114" data-name="Group 114"><path id="Path_198" data-name="Path 198" class="cls-1" d="M140.56,18.71a8.89,8.89,0,0,1,.91,2.56c3.06,12.89,5.68,26.58,7.56,40.26A111.32,111.32,0,0,1,126.8,78.27c-7.9,4.66-16.09,8.58-25.34,10.78s-19.81,1.58-31.36-.33c-11.22-1.84-23.55-4.14-35.33-9a354.51,354.51,0,0,1-3.23-46.61,17,17,0,0,1,0-3.19c.4-1,3.89-2.37,5.37-3.14A157.67,157.67,0,0,1,54.1,19.39c8-3.1,15.93-5.81,24.4-7.09a107.25,107.25,0,0,1,27.84-.72c10.78,1.2,22.68,4.21,34.22,7.13"/><g id="Group_113" data-name="Group 113"><g id="Group_110" data-name="Group 110" class="cls-10"><path id="Path_199" data-name="Path 199" class="cls-8" d="M139.18,37.88c.45.06.41.54,0,.46a236.8,236.8,0,0,0-27.17,0,200.44,200.44,0,0,0-25.65,2.6C78,42.42,69.91,44,62,46c-4,1-7.81,2.28-11.7,3.38-2,.57-4,1-6,1.59a41.83,41.83,0,0,1-5.82,1.62c3.35-2.22,7.15-3.54,10.81-5A158.74,158.74,0,0,1,84.21,37.4c12.77-2,25.8-1.95,40.11-.89,4.78.35,9.78.86,14.86,1.37"/><path id="Path_200" data-name="Path 200" class="cls-8" d="M39.42,70.93c2.27-.66,4.62-.26,6.94-.23,6.65.13,14,.15,21,.3,9.39.2,18.6-.14,27.39-.7a101.14,101.14,0,0,0,13.1-1.45,103.51,103.51,0,0,0,12.11-3.26c7.87-2.54,15.23-6.66,22.87-10.14.16,0,.24.11.23.22-3.19,2.69-7,4.53-10.52,6.64s-7,4.35-10.68,6.13a66.53,66.53,0,0,1-24.51,6.45c-13.37,1-27.78.18-42.78-1.43-4.95-.54-10.15-.92-15.13-2.52"/><path id="Path_201" data-name="Path 201" class="cls-8" d="M41.5,39.34c2.74-1.47,5.59-2.78,8.53-4,8.67-3.68,18-7.22,27.75-9.14a120.59,120.59,0,0,1,20.67-2.24c7.11-.17,14.46.38,22.2.8a233.31,233.31,0,0,0-40.91,4.61C66.6,32,54,35.82,41.5,39.33"/><path id="Path_202" data-name="Path 202" class="cls-8" d="M136.82,46.33c.37.29-.4.37-.78.54-5.93,2.57-12.44,4.76-18.64,7.27-6.55,2.64-13.13,5.67-20.24,7-7.5,1.36-15.33,1.1-23.19,1.5s-15.54,1-23.39,1.13C51,62.78,52.2,63,53,62.9c6.2-1,13.12-1.56,19.64-2.4,3.7-.47,7.47-1,11.16-1.56,18.36-2.55,35.76-8.34,53.06-12.6M54.87,63.16c.12-.08,1,.09.54-.3,0,.26-.91,0-.54.3"/></g><g id="Group_111" data-name="Group 111"><path id="Path_203" data-name="Path 203" class="cls-7" d="M82.61,81c2.17-1.32,6.44-1.32,10.63-1.07,1.8.11,4.7.34,4.79,2,.1,1.94-3.24,2.22-4.43,2.31-3.78.29-8.41-.12-10.81-1.06A2.3,2.3,0,0,1,82.61,81Z"/><path id="Path_204" data-name="Path 204" class="cls-7" d="M98,76.83c-1-4,7.92-4.63,7.8-1.24-.06,1.47-4.25,3.4-6.38,2.84A2.12,2.12,0,0,1,98,76.83Z"/><path id="Path_205" data-name="Path 205" class="cls-7" d="M115.38,77.9c-.5-1.37,1.05-2.79,3-3.55,1.58-.61,4.87-1.06,5,.88,0,.86-1,2.17-2.65,2.84C118.81,78.86,116,79.65,115.38,77.9Z"/></g><g id="Group_112" data-name="Group 112"><path id="Path_206" data-name="Path 206" class="cls-7" d="M137.09,25.49c3.55-2.76-6.58-7.15-8.09-4.16-1.76,3.52,5.34,5,7.73,4.4A1.26,1.26,0,0,0,137.09,25.49Z"/><path id="Path_207" data-name="Path 207" class="cls-7" d="M124.24,22c2.54-2.62-5.79-6.79-6.8-3.16C116.67,21.6,122.48,23.81,124.24,22Z"/></g></g></g></g><g id="Group_116" data-name="Group 116"><path id="Path_208" data-name="Path 208" class="cls-1" d="M139.86,42.77l3,3.85c1.46,1.9,5.76,1,9.6-1.92s5.77-6.9,4.3-8.8l-3-3.85Z"/><path id="Path_209" data-name="Path 209" class="cls-2" d="M139.86,42.77l3,3.85c1.46,1.9,5.76,1,9.6-1.92s5.77-6.9,4.3-8.8l-3-3.85Z"/><path id="Path_210" data-name="Path 210" class="cls-3" d="M153.76,32.05c1.47,1.9-.46,5.84-4.3,8.8s-8.14,3.82-9.6,1.92.47-5.83,4.3-8.79S152.31,30.15,153.76,32.05Z"/><path id="Path_211" data-name="Path 211" class="cls-4" d="M152.74,31.3a3.84,3.84,0,0,0-1.2-.25c-.79.7-1.7,1.67-2.59,2.6-1.51,1.58-3.25,3.42-4.64,5a39.13,39.13,0,0,0-3.86,4.66,2.82,2.82,0,0,0,.92.37c2.68-2.12,6.49-6.54,9.49-10.12C151.43,32.88,152.23,32,152.74,31.3Z"/></g></g><g id="Group_131" data-name="Group 131"><g id="Group_120" data-name="Group 120"><g id="Group_118" data-name="Group 118"><path id="Path_212" data-name="Path 212" class="cls-9" d="M158.36,157.25a33.26,33.26,0,0,0-5.6-6.91c-2.37-2.18-5.06-2.75-6.87-1.43-2,1.47-1.63,4.44-1.09,6.42a28.94,28.94,0,0,0,4.32,8.21C154.61,164.07,157.22,160,158.36,157.25Z"/><path id="Path_213" data-name="Path 213" class="cls-11" d="M163.55,172a6.16,6.16,0,0,0,.59-1.37c.6-3.15-2.16-7.46-3.93-10.37-.61-1-1.22-2-1.85-3-1.14,2.78-3.75,6.82-9.24,6.3.75,1.07,1.5,2.11,2.23,3.11a31.27,31.27,0,0,0,4.45,5.49C158.88,174.78,162,174.85,163.55,172Z"/></g><g id="Group_119" data-name="Group 119"><path id="Path_214" data-name="Path 214" class="cls-7" d="M161.05,167.19c-1-.66-1.73-2.44-2.39-4.25-.28-.76-.71-2-.06-2.35.8-.4,1.52.95,1.78,1.43a13.31,13.31,0,0,1,1.53,4.71A1,1,0,0,1,161.05,167.19Z"/><path id="Path_215" data-name="Path 215" class="cls-7" d="M157,163.69c-1.47,1.14-3.38-2.46-1.94-3,.62-.24,2.2,1.15,2.35,2.15A1,1,0,0,1,157,163.69Z"/><path id="Path_216" data-name="Path 216" class="cls-7" d="M153.57,153.68c-.48.46-1.36.07-2-.61s-1.33-1.84-.54-2.23a1.76,1.76,0,0,1,1.67.59C153.35,152.08,154.19,153.1,153.57,153.68Z"/></g></g><g id="Group_127" data-name="Group 127"><path id="Path_217" data-name="Path 217" class="cls-12" d="M173.37,104a427.5,427.5,0,0,0-48.23-23.7c-1.62,2.21-3,5.54-4.45,8.3-4.31,8.12-8.5,16.37-12.46,24.67-1.28,2.68-2.57,5.54-3.9,8.42-2.32,5-4.77,9.36-7,14.35l-5,8.93a6.09,6.09,0,0,0-.89,1.83,8.53,8.53,0,0,0,.35,5.55c.79,1.74,2.5,3.1,4.17,4.61a69.66,69.66,0,0,0,26.64,15.28c3.6,1.13,8.89,2.85,14,1.47a6.91,6.91,0,0,0,4.86-3.69h0l7.71-15.92h0C150.32,151.74,170.81,110,173.37,104Z"/><path id="Path_218" data-name="Path 218" class="cls-9" d="M118.1,150.08l21.6-36.58a8.49,8.49,0,0,0-3.16-11.58L119.1,91.62c-3.74,7.13-7.4,14.36-10.87,21.64-1.28,2.68-2.57,5.53-3.89,8.41-2.33,5-4.77,9.36-7,14.36l-4.83,8.65,13.92,8.22A8.5,8.5,0,0,0,118.1,150.08Z"/><g id="Group_121" data-name="Group 121"><path id="Path_219" data-name="Path 219" class="cls-7" d="M125.11,111.94c.79,1,6,3.2,4.52,5.58-1.16,1.87-5.36-1-6.59-1.65-1.26,1.22-1.39,4.06-3.15,4.32-3.53.54-2.48-4.73-1-6.45-.67-1.36-2.71-1.68-2.21-3.56.45-1.71,2.94-1.27,4.43-.35,1-1.65,3.79-5.69,5.53-3.4C127.72,107.81,125.64,110.51,125.11,111.94Z"/><path id="Path_220" data-name="Path 220" class="cls-7" d="M122,135.13c-.15,0-.13.18-.17.3-1.74.59-3.4-.65-4.78-1.38-3-1.57-5.33-3-8.51-4.89-.7-.42-3.62-1.7-3.61-3,0-.55.61-1.8,1.45-1.47a72.53,72.53,0,0,1,12.64,7C120.28,132.5,122.2,133.38,122,135.13Z"/><path id="Path_221" data-name="Path 221" class="cls-7" d="M102.91,129.59c1.26-.29,3.47,1.54,4.87,2.33a92.26,92.26,0,0,1,8.49,5.2c1.39,1,3.56,2.39,3.12,3.62-.6,1.67-3.59-.4-4.8-1.08-3.28-1.82-6.07-3.54-9.08-5.54-1.15-.77-3.85-1.94-3.74-3.35C101.82,130,102.25,129.74,102.91,129.59Z"/></g><g id="Group_122" data-name="Group 122"><path id="Path_222" data-name="Path 222" class="cls-7" d="M115.2,163.26c1.65-.11,4.12,1.18,6.47,2.59,1,.6,2.61,1.61,2.17,2.57-.52,1.15-2.53.3-3.25,0a18.85,18.85,0,0,1-5.93-3.88A1.44,1.44,0,0,1,115.2,163.26Z"/><path id="Path_223" data-name="Path 223" class="cls-7" d="M127.73,164.54c.63-2.59,6-.29,4.89,1.63-.48.84-3.48.69-4.55-.28A1.42,1.42,0,0,1,127.73,164.54Z"/><path id="Path_224" data-name="Path 224" class="cls-7" d="M132.66,169.58c.12-.94,1.45-1.29,2.81-1.14,1.1.12,3.13.86,2.6,2a2.52,2.52,0,0,1-2.39.84C134.35,171.18,132.5,170.79,132.66,169.58Z"/></g><g id="Group_126" data-name="Group 126"><path id="Path_225" data-name="Path 225" class="cls-5" d="M181.66,84c1.38,4.53-.26,8-4.93,9.24-5.09,1.38-10.37-.34-14-1.47A69.69,69.69,0,0,1,136.12,76.5c-1.67-1.51-3.38-2.87-4.18-4.61a8.53,8.53,0,0,1-.34-5.55c1-3.4,4.89-5.59,10.37-5.88a23.37,23.37,0,0,1,6.05.9,65.57,65.57,0,0,1,15.47,6c6.13,3.3,12.89,7.46,16.75,13.55A13,13,0,0,1,181.66,84Z"/><path id="Path_226" data-name="Path 226" class="cls-6" d="M169.28,106.52a7,7,0,0,0,4.86-3.69h0l6.9-12.31a7.42,7.42,0,0,1-4.32,2.73c-5.09,1.38-10.37-.34-14-1.47A69.69,69.69,0,0,1,136.12,76.5c-1.67-1.51-3.38-2.87-4.18-4.61a8.53,8.53,0,0,1-.34-5.55,5.82,5.82,0,0,1,.5-1.21L125,77.78a6.09,6.09,0,0,0-.89,1.83,8.59,8.59,0,0,0,.35,5.55c.8,1.74,2.5,3.1,4.17,4.61A69.51,69.51,0,0,0,155.31,105C158.91,106.18,164.2,107.9,169.28,106.52Z"/><g id="Group_123" data-name="Group 123"><path id="Path_227" data-name="Path 227" class="cls-13" d="M169.28,106.52l.64-.2c2-4,4.71-8.33,5.88-12.85a15.51,15.51,0,0,1-3.26.29c-.08.17-.16.34-.24.49a86.36,86.36,0,0,0-4.44,10.33c-.25.7-.6,1.52-.85,2.35A13.33,13.33,0,0,0,169.28,106.52Z"/><path id="Path_228" data-name="Path 228" class="cls-13" d="M167.08,93c-.71-.17-1.38-.36-2-.55a9.47,9.47,0,0,1-.29,1.59c-.8,2.49-2.27,5-3.22,7.58a42.64,42.64,0,0,0-1.18,4.15c0,.2-.11.4-.17.61.78.18,1.58.33,2.41.44,0-.12.09-.24.13-.35C164.21,102.83,166.63,97.25,167.08,93Z"/><path id="Path_229" data-name="Path 229" class="cls-13" d="M157.73,99.8c1.45-3,3.07-6.06,3.35-8.57l-1.92-.68c-.88.8-1.13,2.21-1.66,3.28-1.44,2.9-3.06,5.43-4.23,8.41-.21.55-.5,1.2-.71,1.87.85.3,1.7.6,2.58.87.19-.36.37-.74.55-1.08C156.39,102.6,157.08,101.13,157.73,99.8Z"/><path id="Path_230" data-name="Path 230" class="cls-13" d="M148.91,99.64c1.21-2.58,2.56-5.1,3.62-7.58a12.12,12.12,0,0,0,1.23-3.76c-.65-.3-1.3-.61-1.93-.93a8.13,8.13,0,0,0-1.77,2.54,47.7,47.7,0,0,0-3.47,8.47,13.36,13.36,0,0,0-.9,2.9l2,.91A13.32,13.32,0,0,0,148.91,99.64Z"/><path id="Path_231" data-name="Path 231" class="cls-13" d="M143.55,92.08a50.79,50.79,0,0,0,3.35-7.45c-.73-.45-1.45-.91-2.17-1.39a22.69,22.69,0,0,0-1.41,2.19,77.9,77.9,0,0,0-4.72,8.83,21.67,21.67,0,0,0-1,2.44c.85.56,1.7,1.1,2.57,1.61.37-.64.67-1.38,1-2C141.92,94.91,142.85,93.52,143.55,92.08Z"/><path id="Path_232" data-name="Path 232" class="cls-13" d="M139,84.07c.57-1.22,1.44-2.75,1.47-3.93L139.06,79a10.82,10.82,0,0,0-2.35,3.21,69.63,69.63,0,0,0-4.09,8.48c-.21.52-.52,1.13-.75,1.77.64.52,1.29,1,1.94,1.52.36-.62.64-1.35,1-2C136.28,89.39,137.65,86.88,139,84.07Z"/><path id="Path_233" data-name="Path 233" class="cls-13" d="M128.14,85.43c1.48-2.66,2.94-5.27,4.4-7.87a21.45,21.45,0,0,0,1.51-2.94A12.27,12.27,0,0,1,132.61,73a16.54,16.54,0,0,0-1.41,2.62c-1.62,2.76-3.25,5.21-4.69,8a15.93,15.93,0,0,0-1.27,2.71,12.34,12.34,0,0,0,1.42,1.56A11.35,11.35,0,0,0,128.14,85.43Z"/></g><g id="Group_124" data-name="Group 124"><path id="Path_234" data-name="Path 234" class="cls-7" d="M135.73,68.31c-1.18,1.37-3-2.93-1.23-2.83C135.42,65.53,135.81,67.44,135.73,68.31Z"/><path id="Path_235" data-name="Path 235" class="cls-7" d="M135.17,71.41c0-.38.19-1.16,1-1.12,1,.06,1.92,1.86,2.41,2.5s2.1,2,1.67,3c-.61,1.46-2.54-.68-3.17-1.44-.34-.41-.63-.84-.89-1.19C135.69,72.57,135.19,72.15,135.17,71.41Z"/></g><g id="Group_125" data-name="Group 125"><path id="Path_236" data-name="Path 236" class="cls-7" d="M173.87,77.33c1.3.31,4.24,4.88,2.63,5.79-1.32.73-3.83-3.36-3.56-4.92C173,77.8,173.18,77.58,173.87,77.33Z"/><path id="Path_237" data-name="Path 237" class="cls-7" d="M173.22,84.76c1.22-1.32,2.6,1,1.86,1.8C174.08,87.6,172.14,85.92,173.22,84.76Z"/><path id="Path_238" data-name="Path 238" class="cls-7" d="M178,85c1.38-1,3.45,2.59,2.08,3.33-.58.31-1,0-1.53-.6C177.66,86.8,177,85.67,178,85Z"/></g></g></g><g id="Group_130" data-name="Group 130"><g id="Group_128" data-name="Group 128"><path id="Path_239" data-name="Path 239" class="cls-8" d="M161.12,131.82a27,27,0,0,1,3.36-.12c3.47.26,7.62,2.38,5.93,6.5a7.36,7.36,0,0,1-4.14,3.47,39.17,39.17,0,0,1-9.85,1.57c-3.59.18-8.23.33-10.3-.78a5,5,0,0,1-2.18-6.74l.05-.09c1.38-2.57,5-2.83,8.84-3.25C155.67,132.06,158.27,132,161.12,131.82Z"/><path id="Path_240" data-name="Path 240" class="cls-12" d="M164.48,131.7a27,27,0,0,0-3.36.12c-1.5.07-2.93.13-4.36.22,2.34,2.57,4.5,6.64.9,11.12a36.47,36.47,0,0,0,8.61-1.49,7.36,7.36,0,0,0,4.14-3.47C172.1,134.08,168,132,164.48,131.7Z"/></g><g id="Group_129" data-name="Group 129"><path id="Path_241" data-name="Path 241" class="cls-7" d="M154.42,134.57c.94.45,2.69.26,4.39,0,.73-.12,1.9-.34,1.87-1s-1.42-.76-1.92-.75a11.86,11.86,0,0,0-4.36.92A.93.93,0,0,0,154.42,134.57Z"/><path id="Path_242" data-name="Path 242" class="cls-7" d="M159,136.2c-.23,1.66,3.44,1.54,3.24.16-.09-.6-1.88-1.2-2.73-.87A.86.86,0,0,0,159,136.2Z"/></g></g></g></g></g></g></svg>