<svg xmlns="http://www.w3.org/2000/svg" viewBox="0 0 208.32 175.16"><defs><style>.cls-1{fill:#c1d5e8;}.cls-1,.cls-2,.cls-3,.cls-4,.cls-5,.cls-8{fill-rule:evenodd;}.cls-2,.cls-6{fill:#334f70;}.cls-3{fill:#fff;}.cls-4,.cls-7{fill:#c64f69;}.cls-5{fill:#25364f;}.cls-8{fill:#e8bd54;}.cls-9{fill:#ff8c9b;}</style></defs><g id="Layer_2" data-name="Layer 2"><g id="Layer_1-2" data-name="Layer 1"><g id="Group_173" data-name="Group 173"><g id="Group_139" data-name="Group 139"><path id="Path_243" data-name="Path 243" class="cls-1" d="M204.06,67.16c1.24.78,3.72,2.72,4.16,4.41s-.59,3.75-1.37,5.43-18.77,39.51-20.24,42.61c-2.38,5-4.6,10.53-6.16,14.77-2.56,7-5.58,14.63-8.28,22-.8,2.16-1.54,5.57-3.69,7.28-1.92,1.52-5.27.74-7.94.2a81.35,81.35,0,0,1-8.24-2.2c-5.45-1.74-11.26-3.71-16.69-5.78-3.31-1.28-6-2.5-8.51-3.5-5.48-2.18-11-4.34-16.86-6.87-4.27-1.83-8.1-4.56-8-8.55a29.12,29.12,0,0,1,1.39-5.83c.56-2,1.07-4,1.7-5.86,1.4-4.09,3.21-8.09,4.87-11.89,5.23-12,9.88-24,15.2-35.91,3.4-7.6,7.82-16.22,11.9-24.11C140,48.22,143.93,42.11,148.53,42c2-.06,4.48.91,6.73,1.64C162,45.79,169.15,49.51,176,53c7.43,3.83,13.74,6.48,20.92,10.1C199.31,64.37,201.67,65.66,204.06,67.16Z"/><g id="Group_138" data-name="Group 138"><g id="Group_133" data-name="Group 133"><path id="Path_244" data-name="Path 244" class="cls-2" d="M198.13,80.12c.1-.24.2-.47.29-.71-1.52-.8-3.14-1.5-4.65-2.27-7-3.52-13.19-6.65-20.3-10-4.33-2-8.77-3.93-13.43-6.13-1.92-.91-3.83-1.8-6.72-3.07-1.72-.76-5.86-3-6.71-2.67s-2,2.43-1.68,3.26,1.6,1.2,3,1.89c3.52,1.73,7,3.52,10,4.9,11.42,5.26,22.41,11.31,33.45,16.72,1.44.7,3.21,1.7,4.63,2.3C196.76,83,197.51,81.58,198.13,80.12Z"/><path id="Path_245" data-name="Path 245" class="cls-2" d="M193.28,89.92c-1.9-1.15-4.07-2-6.07-3.06-7-3.52-13.19-6.65-20.3-10-4.33-2-8.78-3.93-13.43-6.13-1.92-.91-3.83-1.8-6.72-3.07-1.72-.76-5.86-3-6.72-2.67s-2,2.43-1.67,3.26,1.6,1.2,3,1.89c3.52,1.73,7,3.51,10,4.89,11.42,5.26,22.41,11.31,33.45,16.72,2.14,1,5,2.73,6.38,2.84C191.91,93.06,192.58,91.48,193.28,89.92Z"/><path id="Path_246" data-name="Path 246" class="cls-2" d="M188.57,99.92c-1.16-.56-2.33-1.09-3.45-1.66-7-3.52-13.19-6.64-20.3-10-4.33-2-8.77-3.93-13.43-6.14-1.92-.9-3.83-1.8-6.71-3.07-1.73-.75-5.87-3-6.73-2.66s-2,2.43-1.66,3.26,1.6,1.2,3,1.88c3.52,1.74,7,3.52,10,4.9,11.42,5.27,22.41,11.32,33.45,16.72,1,.48,2.11,1.1,3.18,1.63Q187.27,102.38,188.57,99.92Z"/><path id="Path_247" data-name="Path 247" class="cls-2" d="M182.9,110.08c-1.43-.73-2.93-1.39-4.34-2.1-6.95-3.51-13.18-6.64-20.3-10-4.32-2-8.77-3.93-13.43-6.13-1.92-.91-3.82-1.8-6.71-3.07-1.73-.76-5.86-3-6.72-2.67s-2,2.43-1.67,3.26,1.6,1.2,3,1.89c3.52,1.73,7,3.51,10,4.89,11.41,5.26,22.41,11.31,33.44,16.72,1.22.6,2.67,1.39,4,2C181,113.29,182,111.69,182.9,110.08Z"/><path id="Path_248" data-name="Path 248" class="cls-2" d="M178.82,120.42l.3-.7c-1.53-.8-3.14-1.5-4.66-2.28-7-3.51-13.19-6.64-20.3-10-4.32-2-8.77-3.93-13.43-6.13-1.92-.9-3.83-1.8-6.71-3.08-1.73-.75-5.87-3-6.72-2.66s-2,2.43-1.67,3.26,1.6,1.2,3,1.88c3.52,1.74,7,3.52,10,4.9C150,110.9,161,117,172.07,122.36c1.44.7,3.21,1.7,4.63,2.3C177.45,123.27,178.2,121.88,178.82,120.42Z"/></g><g id="Group_137" data-name="Group 137"><g id="Group_134" data-name="Group 134"><path id="Path_249" data-name="Path 249" class="cls-3" d="M150.3,47.2a3.88,3.88,0,0,1,2.37-.91c1.1,0,4.76,1,4,2.54S150.45,49.12,150.3,47.2Z"/><path id="Path_250" data-name="Path 250" class="cls-3" d="M147,48.16c-.93,1-2.71,2.18-3.58,1.54C141.3,48.16,147.06,45.51,147,48.16Z"/><path id="Path_251" data-name="Path 251" class="cls-3" d="M151.3,51.53a.68.68,0,0,0-.12.67,2.47,2.47,0,0,1-3.26.07,2.76,2.76,0,0,0,0-.76C148.86,50.67,150.35,50.18,151.3,51.53Z"/></g><g id="Group_135" data-name="Group 135"><path id="Path_252" data-name="Path 252" class="cls-3" d="M203.55,71.2c-1,3.41-6.88-.91-5.84-2.72S203,69.26,203.55,71.2Z"/><path id="Path_253" data-name="Path 253" class="cls-3" d="M191.93,64.26c1.79,1,3,1.61,2.27,3-1.23,2.11-9-1.67-7.83-3.91C187.32,61.52,190.26,63.3,191.93,64.26Z"/><path id="Path_254" data-name="Path 254" class="cls-3" d="M204,76.71c.22,1.61-1.6,3.4-2.79,2.39C199.78,77.92,202.35,74.49,204,76.71Z"/></g><g id="Group_136" data-name="Group 136"><path id="Path_255" data-name="Path 255" class="cls-3" d="M164.25,159.46c-1.49,2.3,5.58,3.13,4.67.58C168.46,158.71,165.5,159,164.25,159.46Z"/><path id="Path_256" data-name="Path 256" class="cls-3" d="M160,161.6c.56-.15,1.62-.77,1.23-1.88-.52-1.43-3.54-2-4.69-2.44-1.4-.55-3.8-2.2-5.12-1.14-1.87,1.53,2.08,3.42,3.46,4,.74.31,1.49.55,2.13.79C158.06,161.35,158.89,161.9,160,161.6Z"/></g></g><path id="Path_257" data-name="Path 257" class="cls-2" d="M155.46,136.2c2.07.26,4.55-1.88,6.16-.27s-.89,4.34-1.3,6.63c2.27.15,4.74-.9,6.48.87s1,7.73-.23,9.91a14.4,14.4,0,0,1-.8-4.15c-.09-1,.27-3.33-.51-4.15-1.7-1.76-4.86,1-6.47-.58s.13-4.3.86-6.48c-1.87-.92-5,2.39-6.72,1.14-1.58-1.12-.44-2.79.48-4.6-3.4,1.2-8.68,8.13-11.64,5.69-1.82-1.49-.44-3.76.45-5.74-2.72,1.85-8.54,9.18-10.8,5.1-1.34-2.41,1.59-7.64,4.64-11.29,1.84-2.19,4.95-5.66,6.8-4.45,2.16,1.41.62,3.78,0,5.6,2.28-.6,4.48-5.55,6.78-5.3,2.41,1.5.35,3.77-.74,5.75s-2,3.89-2.62,5.08c2.27-.61,8.19-6.69,10.64-5.82C160,130.23,157.3,134,155.46,136.2Zm-20.38.14c1.66-1,3.29-3,4.94-4-.38-1.43.65-2.88.77-4.32-2.26,2.77-4.54,5.55-5.71,8.3Z"/></g></g><g id="Group_152" data-name="Group 152"><g id="Group_140" data-name="Group 140"><path id="Path_258" data-name="Path 258" class="cls-1" d="M80.46,118.08c2.82-1.12,8.8-2,10.89-1a5.88,5.88,0,0,1,2.49,3.6,34.64,34.64,0,0,1,1,5.26c1,6.7,2.19,13.69,2.69,20.4.23,3,.4,6.67-.39,9.11a7.46,7.46,0,0,1-12.9,2.26c-1.66-2.16-2.68-6.55-3.26-9.69s-1.18-6.45-1.67-10.4-1.07-7.41-1.41-10.23C77.47,123.71,77,119.45,80.46,118.08Z"/><path id="Path_259" data-name="Path 259" class="cls-4" d="M85.16,150.53c1.39-.83,3.12-.76,4.57-.9s3.06-.54,4.24.12a35,35,0,0,1-1.9,6c-.19.56-.32,1.7-.83,1.87-.84.28-2.54-2.17-3.15-2.88-.48-.56-1-1.14-1.47-1.64C85.89,152.29,85.06,151.6,85.16,150.53Z"/></g><g id="Group_144" data-name="Group 144"><path id="Path_260" data-name="Path 260" class="cls-5" d="M34,10a64,64,0,0,1,10.45-1.9c9.72-1.18,19.78-2.32,29.93-3.83,6.5-1,13.52-2.09,20.4-3.13,6.5-1,14-2.66,17.17,1.91,1.68,2.44,2.3,6.56,3,10.18s1.07,6.59,1.78,10.38c2,11.06,3.3,20.21,4.95,31,1.53,10,3.3,21.23,4,30.31.53,6.62.9,13-.55,18.29a41,41,0,0,1-7.4,14,46.75,46.75,0,0,1-5.44,5.9,27.48,27.48,0,0,1-3.11,2.7,48.85,48.85,0,0,1-12.54,6.14,53.12,53.12,0,0,1-32.31.2,25,25,0,0,1-3.59-1.69,48.25,48.25,0,0,1-6.78-4c-4.26-3.11-8.49-6.79-11.32-11.65S38,102.47,36.61,94.89,34.48,81.3,33.69,74.44c-1.51-13.23-3.6-26.87-4.9-40.13-.3-3-.79-6.53-1-9.89-.2-3.2-.5-6.67.16-9.17C28.85,11.85,31,10.91,34,10Z"/><g id="Group_143" data-name="Group 143"><g id="Group_141" data-name="Group 141"><path id="Path_261" data-name="Path 261" class="cls-3" d="M85.8,127c-1.12,3.28,7.77,2.13,5.89-.71C90.71,124.83,87.18,126.06,85.8,127Z"/><path id="Path_262" data-name="Path 262" class="cls-3" d="M81.23,131c.63-.36,1.74-1.45.92-2.67-1.07-1.6-4.92-1.37-6.47-1.56-1.88-.24-5.31-1.54-6.59.17-1.83,2.43,3.57,3.54,5.45,3.85,1,.16,2,.22,2.83.32C78.82,131.22,80,131.64,81.23,131Z"/></g><g id="Group_142" data-name="Group 142"><path id="Path_263" data-name="Path 263" class="cls-3" d="M42.92,101.87c1.43,1,2.62,3.67,3.63,6.38.44,1.16,1.11,3,.11,3.55-1.19.6-2.29-1.41-2.68-2.14a20,20,0,0,1-2.35-7.09A1.54,1.54,0,0,1,42.92,101.87Z"/><path id="Path_264" data-name="Path 264" class="cls-3" d="M52.42,111.15c2.22-1.72,5.12,3.69,2.95,4.56-.94.38-3.32-1.72-3.56-3.22A1.48,1.48,0,0,1,52.42,111.15Z"/><path id="Path_265" data-name="Path 265" class="cls-3" d="M53.17,118.55c.72-.68,2-.11,3.07.9.82.83,2,2.77.82,3.37a2.67,2.67,0,0,1-2.52-.88C53.52,121,52.24,119.44,53.17,118.55Z"/></g></g></g><g id="Group_151" data-name="Group 151"><path id="Path_266" data-name="Path 266" class="cls-3" d="M37.46,17.32a52.75,52.75,0,0,1,9.13-1.92c8.72-1.33,17.22-2.32,25.92-3.55C80.83,10.67,90,9.15,98.42,8.3c4.37-.43,8.23-.85,10,2.72,1.06,2.16,1.48,4.92,2,7.68.5,2.56,1.15,5.37,1.63,7.87.53,2.76.77,5.21,1.14,7.66,1.85,12.34,4.13,25.82,4.83,37.5.3,4.93.12,9.24-1.62,12.82-1.66,3.41-4.7,6.26-8.06,8.82-6.6,5-16.73,8.57-26.89,9.72-9.51,1.07-18.65.3-25.95-2.72-4-1.65-7.15-3.3-9.78-6.51S41.52,86,40.42,80.13c-1.86-9.94-3.11-20.31-4.49-30.42-1.06-7.69-1.68-14.5-2.36-22.24-.18-2-.39-4.88.18-6.75A5.35,5.35,0,0,1,37.46,17.32Z"/><g id="Group_149" data-name="Group 149"><path id="Path_267" data-name="Path 267" class="cls-1" d="M105.15,22.46c1.77,14.06,3.32,28,5.9,42.54-8.35,5.36-22.36,7.8-33,8.85C66.82,75,56.13,75.16,47.32,73Q44.49,51.19,42.5,29.89c5.27-2,10.51-3.83,16.11-5.43C76.14,19.48,91.72,20.56,105.15,22.46Z"/><g id="Group_148" data-name="Group 148"><g id="Group_145" data-name="Group 145"><path id="Path_268" data-name="Path 268" class="cls-3" d="M53.79,33.3c1.41.62,1.45,2.64,1.64,4.19A57.56,57.56,0,0,1,56,46.68c-.06,1.3-.25,3-1.67,3.33-1.48-.94-1.64-3.1-1.94-4.78-.72-4.11-.53-8.94.75-11.44C53.16,33.53,53.4,33.37,53.79,33.3Z"/><path id="Path_269" data-name="Path 269" class="cls-3" d="M55.9,52.73c1.37,1.72,1.6,5.08,1.81,7.74.12,1.47.92,6.53-1,6.78-1.67.21-2.16-4.16-2.41-6.79-.29-3-.72-7,.65-7.67C55.32,52.6,55.63,52.81,55.9,52.73Z"/></g><g id="Group_146" data-name="Group 146"><path id="Path_270" data-name="Path 270" class="cls-3" d="M61.42,32.65c1.13.83,1,2.62,1.1,4,.22,2.86.45,5.54.53,8.54,0,1.14.33,3.31-1,3.49-1.76.24-2-5.36-2.14-7-.28-2.9-.43-6.43.47-8.44C60.48,32.87,60.92,32.74,61.42,32.65Z"/><path id="Path_271" data-name="Path 271" class="cls-3" d="M64,32.38c.75-.47,3.71-.58,5.57-.65,1.37-.05,4.36-.32,4.46.92.07.89-1.54,1.27-3.07,1.53-1.84.31-7.31.87-7.67-.65C63.08,32.78,63.46,32.71,64,32.38Z"/><path id="Path_272" data-name="Path 272" class="cls-3" d="M76.7,31.68c1.88-.68,2.61,5.83,2.86,8,.34,3,.89,7.19-.88,7.39s-2.29-5-2.59-7.56C75.88,37.77,75,32.31,76.7,31.68Z"/><path id="Path_273" data-name="Path 273" class="cls-3" d="M64.17,66c-1.2-.75-1.54-3.35-1.89-5.28a33.74,33.74,0,0,1-.49-9c.81-.42,1-.19,1.66.1a42.56,42.56,0,0,1,1.37,9.32C64.94,62.8,65.62,65,64.17,66Z"/><path id="Path_274" data-name="Path 274" class="cls-3" d="M79.6,49.62c1.61,2.57,2,6.1,2.17,9.94.07,1.48.52,5.3-1.35,5.38-1.62.07-2.3-4.49-2.52-7.25-.24-3.11-.34-6,.23-7.4C78.36,49.72,78.8,49.5,79.6,49.62Z"/><path id="Path_275" data-name="Path 275" class="cls-3" d="M67,65.32a27.42,27.42,0,0,1,3.56-.83c1.91-.31,6.68-.91,6.82.52.1,1.13-2.37,1.41-4.19,1.64s-3.61.25-4.64.43-2.1.85-2.5-.23S66.35,65.65,67,65.32Z"/></g><g id="Group_147" data-name="Group 147"><path id="Path_276" data-name="Path 276" class="cls-3" d="M98.2,29.29c-.11,1.17-1.74,1.21-2.76,1.47-3.75.94-8.61,2-11,1-.42-1.6,2.67-1.86,4.7-2.25,1.5-.28,3.33-.5,4.91-.66C95.76,28.63,97.62,28.39,98.2,29.29Z"/><path id="Path_277" data-name="Path 277" class="cls-3" d="M84.34,32.88c.93,1.75,1,4.27,1.48,7,.27,1.67,1.64,5.88-.32,6.28-1.5.3-1.77-2.34-2.07-3.93-.58-3.07-1-7.34-.33-9.07C83.25,32.6,83.9,32.79,84.34,32.88Z"/><path id="Path_278" data-name="Path 278" class="cls-3" d="M86.76,46.68c1.64-.8,5-.93,7.58-1.13,1.58-.12,6.18-1.18,6.43.29.23,1.3-3,1.81-4.89,2.13-1,.16-3.62.5-5.56.65-1.62.12-4.49.33-4.73-.69S86,47.06,86.76,46.68Z"/><path id="Path_279" data-name="Path 279" class="cls-3" d="M102.26,47.29c1.42,1.89,1.26,5.13,1.54,8,.12,1.25.3,2.79.48,4.14.15,1.14.7,3.14-1,3.18-1.12-.44-1.08-2.15-1.41-3.91-.69-3.72-1.82-9-1-10.7C101,47.39,101.39,47.18,102.26,47.29Z"/><path id="Path_280" data-name="Path 280" class="cls-3" d="M87.64,63c1.44-.88,4.67-1,7.7-1.31,1.88-.21,6.19-.86,6.24.82,0,1.53-5.89,2-7.48,2.25-1.3.16-6.56,1-7.21-.1S87,63.34,87.64,63Z"/></g></g></g><g id="Group_150" data-name="Group 150"><path id="Path_281" data-name="Path 281" class="cls-4" d="M66.4,84.39c.68,1.46.44,3.17.43,4.63s.22,3.1-.56,4.2a33.78,33.78,0,0,1-5.76-2.5c-.54-.25-1.66-.49-1.78-1-.19-.87,2.42-2.3,3.19-2.84.61-.43,1.23-.89,1.79-1.3C64.57,84.92,65.35,84.18,66.4,84.39Z"/><path id="Path_282" data-name="Path 282" class="cls-4" d="M96.15,80.5c-.63,1.48-.34,3.19-.28,4.65s-.12,3.11.7,4.18a33.81,33.81,0,0,0,5.67-2.69c.54-.26,1.65-.54,1.75-1.07.16-.87-2.5-2.22-3.28-2.73-.63-.41-1.26-.85-1.83-1.24C98,81,97.2,80.26,96.15,80.5Z"/><path id="Path_283" data-name="Path 283" class="cls-4" d="M79.63,84.48a3.82,3.82,0,0,1,5.56,4,4,4,0,0,1-4.26,3.42,4.59,4.59,0,0,1-3.06-2.26,3.78,3.78,0,0,1,1.68-5.1A.2.2,0,0,1,79.63,84.48Z"/></g></g></g><g id="Group_162" data-name="Group 162"><g id="Group_154" data-name="Group 154"><path id="Path_284" data-name="Path 284" class="cls-1" d="M59.47,149c-2.57,1-5,2.14-7.61,3.1A47.41,47.41,0,0,0,49.4,146c-2.62-6.08-5.11-12.4-7.72-18.65C34.9,111.14,28,94.45,21,78c-2.51-5.93-5.18-12.24-7.82-18.54-.44-1-.74-1.92-1.18-3.22a7.82,7.82,0,0,1-.75-3.53c.25-1.5,2.45-2.72,4.07-2.89a4.92,4.92,0,0,1,1.71.1c1.43.56,2.47,3.65,3.33,5.58C25,66,29,76.11,33.43,86.67,42.22,107.43,50.92,128.6,59.47,149Z"/><path id="Path_285" data-name="Path 285" class="cls-3" d="M17.84,53.56c1.1.34,2.07,3.19,2.72,4.73,3.7,8.75,7,17.39,10.58,26.2,2.17,5.39,4.1,10.54,6.25,15.82.73,1.79,1.25,3.65,1.91,5.44,1.32,3.57,3,7,4.34,10.38.71,1.79,1.4,3.55,2.11,5.24,1.36,3.2,2.44,6,3.73,9.37,0,.09-.08.15,0,.3a20.07,20.07,0,0,1,.7,2c.31.82,1.06,1.85.3,2.72-1.17,0-1.36-1.36-1.71-2.12-.59-1.11-1.13-2.25-1.61-3.42-.18-.53-.74-1.58-1.11-2.42-1.37-3.12-2.75-6.52-4.13-9.67-.81-1.88-1.74-4.07-2.62-6.15-.37-.88-.63-1.83-1-2.72s-.8-1.46-1.11-2.22-.65-1.84-1-2.72c-.94-2.3-2-4.59-2.92-6.85-4.93-12-9.6-25-14.21-38-.63-1.78-1.85-4.27-1.51-5.85C17.55,53.58,17.87,53.35,17.84,53.56Z"/><g id="Group_153" data-name="Group 153"><path id="Path_286" data-name="Path 286" class="cls-6" d="M14.53,55.36a.5.5,0,0,0-.65-.28l-2,.84.11.31.22.65,2-.87a.5.5,0,0,0,.26-.65Z"/><path id="Path_287" data-name="Path 287" class="cls-6" d="M16.64,60.37a.5.5,0,0,0-.66-.28h0l-2.16.9.4.93,2.15-.9a.49.49,0,0,0,.27-.65Z"/><path id="Path_288" data-name="Path 288" class="cls-6" d="M18.75,65.37a.5.5,0,0,0-.66-.27l-2.15.9c.12.31.26.62.39.93L18.48,66a.49.49,0,0,0,.27-.64Z"/><path id="Path_289" data-name="Path 289" class="cls-6" d="M20.85,70.38a.49.49,0,0,0-.65-.27h0l-2.13.9.39.94,2.14-.9a.51.51,0,0,0,.27-.67Z"/><path id="Path_290" data-name="Path 290" class="cls-6" d="M23,75.38a.51.51,0,0,0-.66-.28l-2.14.9.4.94,2.13-.9A.51.51,0,0,0,23,75.38Z"/><path id="Path_291" data-name="Path 291" class="cls-6" d="M25.06,80.39a.49.49,0,0,0-.65-.27h0l-2.12.9.39.93,2.13-.9a.51.51,0,0,0,.27-.65Z"/><path id="Path_292" data-name="Path 292" class="cls-6" d="M27.17,85.4a.49.49,0,0,0-.65-.27h0L24.39,86l.39.93,2.12-.89a.5.5,0,0,0,.27-.66Z"/><path id="Path_293" data-name="Path 293" class="cls-6" d="M29.35,90.41a.52.52,0,0,0-.67-.28l-2.18.92.39.93,2.19-.92a.51.51,0,0,0,.27-.65Z"/><path id="Path_294" data-name="Path 294" class="cls-6" d="M31.45,95.41a.51.51,0,0,0-.65-.28h0l-2.19.92L29,97l2.2-.93a.47.47,0,0,0,.26-.63Z"/><path id="Path_295" data-name="Path 295" class="cls-6" d="M33.56,100.41a.51.51,0,0,0-.65-.27h0l-2.2.92c.13.31.26.63.4.94l2.2-.93A.51.51,0,0,0,33.56,100.41Z"/><path id="Path_296" data-name="Path 296" class="cls-6" d="M35.67,105.42a.52.52,0,0,0-.66-.27l-2.22.94c.13.3.26.62.39.93l2.22-.93A.53.53,0,0,0,35.67,105.42Z"/><path id="Path_297" data-name="Path 297" class="cls-6" d="M37.77,110.43a.5.5,0,0,0-.66-.27h0l-2.22.94c.13.31.26.62.38.93l2.23-.94a.49.49,0,0,0,.28-.64Z"/><path id="Path_298" data-name="Path 298" class="cls-6" d="M39.87,115.44a.49.49,0,0,0-.65-.27h0l-2.24.94.39.93,2.24-.94a.51.51,0,0,0,.27-.65Z"/><path id="Path_299" data-name="Path 299" class="cls-6" d="M42,120.45a.5.5,0,0,0-.66-.27h0l-2.26.95.39.93,2.27-1a.5.5,0,0,0,.27-.65Z"/><path id="Path_300" data-name="Path 300" class="cls-6" d="M44.1,125.46a.49.49,0,0,0-.65-.28h0l-2.28,1,.39.93,2.29-1a.5.5,0,0,0,.27-.64Z"/><path id="Path_301" data-name="Path 301" class="cls-6" d="M46.21,130.46a.5.5,0,0,0-.66-.27h0l-2.3,1c.13.31.26.62.38.93l2.32-1a.49.49,0,0,0,.27-.65Z"/><path id="Path_302" data-name="Path 302" class="cls-6" d="M48.31,135.46a.52.52,0,0,0-.66-.27l-2.35,1c.12.31.25.63.38.94l2.36-1A.51.51,0,0,0,48.31,135.46Z"/><path id="Path_303" data-name="Path 303" class="cls-6" d="M50.42,140.48a.5.5,0,0,0-.66-.27h0l-2.4,1,.39.93,2.4-1a.49.49,0,0,0,.27-.65Z"/><path id="Path_304" data-name="Path 304" class="cls-6" d="M52.52,145.48a.5.5,0,0,0-.65-.28h0l-2.39,1c.13.31.27.62.41.92l2.37-1a.5.5,0,0,0,.26-.66Z"/></g></g><g id="Group_157" data-name="Group 157"><g id="Group_155" data-name="Group 155"><path id="Path_305" data-name="Path 305" class="cls-7" d="M7.14,45.12a1.51,1.51,0,0,1,.72-2l3.69-1.73a1.5,1.5,0,0,1,2,.72l2.62,5.57a1.49,1.49,0,0,1-.72,2l-3.69,1.74a1.51,1.51,0,0,1-2-.72h0Z"/><path id="Path_306" data-name="Path 306" class="cls-7" d="M6.76,39.14a1,1,0,0,1,.53-1l1-.45A1,1,0,0,1,9.37,38l2.44,3.36a.93.93,0,0,1-.43,1.25h0l-2.3,1.09A.94.94,0,0,1,7.8,43.2s-1-4-1-4.07"/></g><g id="Group_156" data-name="Group 156"><path id="Path_307" data-name="Path 307" class="cls-6" d="M7.53,38.33,8.24,38l-8-16.4h0a.15.15,0,0,0-.17-.06A.13.13,0,0,0,0,21.7H0Z"/><path id="Path_308" data-name="Path 308" class="cls-6" d="M7,38.26a.33.33,0,0,1,.16-.44h0l.87-.41a.34.34,0,0,1,.45.15.34.34,0,0,1-.16.45l-.88.42A.33.33,0,0,1,7,38.27"/></g><path id="Path_309" data-name="Path 309" class="cls-7" d="M8.63,52.67A.85.85,0,0,1,9,51.55H9l8.34-3.91a.84.84,0,1,1,.72,1.52L9.75,53.08a.85.85,0,0,1-1.11-.39h0"/></g><g id="Group_161" data-name="Group 161"><path id="Path_310" data-name="Path 310" class="cls-4" d="M61.29,150.86c1.64.17,3.29-.32,4.4.53.83.65,1.29,2,1.82,3.11a87.85,87.85,0,0,1,4.18,10.61c.6-.23,1.82-.57,2.46-.11,1.28,2.06-2.46,3.09-4.28,3.86-4.29,1.81-8.83,3.79-13.29,5.58-1.23.49-3.7,1.45-4-.22-.22-1.44,1.58-1.74,2-2.14-.72-1.69-1.55-3.93-2.47-6.22A28.08,28.08,0,0,1,50,159.43a4.43,4.43,0,0,1,1.71-4.29c-.87.29-1.73.74-2.78,1.08a7.9,7.9,0,0,1-3.11.64c-.58-.08-1.24-.58-1.28-1.07-.12-1.24,2.73-2.34,4.28-3.11,3.14-1.55,6.8-3.43,10.08-4.72a35,35,0,0,1,5.68-1.71c1-.19,1.73.17,1.82.64.2,1.11-1.54,1.9-2.25,2.36A12.12,12.12,0,0,1,61.29,150.86Z"/><g id="Group_160" data-name="Group 160"><g id="Group_158" data-name="Group 158"><path id="Path_311" data-name="Path 311" class="cls-3" d="M53.12,162.6c-1.2-.27-.44,2.82.49,2C54.09,164.24,53.52,163,53.12,162.6Z"/><path id="Path_312" data-name="Path 312" class="cls-3" d="M51.55,161.14c.15.21.58.56,1,.22s.28-1.8.28-2.35.33-1.94-.33-2.32c-.93-.55-1.1,1.4-1.13,2.08,0,.36,0,.71,0,1C51.35,160.3,51.25,160.73,51.55,161.14Z"/></g><g id="Group_159" data-name="Group 159"><path id="Path_313" data-name="Path 313" class="cls-3" d="M69.07,162a6.35,6.35,0,0,0,0,3.21c.09.53.25,1.39.73,1.36s.56-1,.55-1.4a8.71,8.71,0,0,0-.66-3.19A.69.69,0,0,0,69.07,162Z"/><path id="Path_314" data-name="Path 314" class="cls-3" d="M67.87,165.33c-1.21-.16-1.13,2.52-.12,2.37.44-.06.88-1.37.64-2A.65.65,0,0,0,67.87,165.33Z"/></g></g></g></g><g id="Group_172" data-name="Group 172"><g id="Group_165" data-name="Group 165"><path id="Path_315" data-name="Path 315" class="cls-8" d="M128.37,30.36a111.84,111.84,0,0,1,20.09,3.13c-.08,1.27-.25,2.28-.38,3.39a8.54,8.54,0,0,0,0,3.56c.57,1.8,3.73,2.44,4.86,3.88a6.27,6.27,0,0,1,1.3,3.84,26,26,0,0,1-.31,3.06c-.29,2.84-.83,5.93-1.27,8.87-1.44,9.79-3,19.53-4.95,28.92a21.56,21.56,0,0,1-1.45,5.34A9,9,0,0,1,143,97.62c-2.34,1.12-5.82.63-8.26.39-3-.31-5.2-.8-7.56-1.1a65,65,0,0,1-7.48-1.31c-2.24-.56-4.87-1.36-6.15-2.87-2.17-2.58-1.82-6.32-1.46-10.19.19-2,.51-4.11.74-5.91,1.23-9.75,2.78-19.36,4.4-29,.15-.9.37-1.86.56-2.76.51-2.53,1.25-4.79,3.43-5.88,1.63-.82,3.9-.62,5-1.64C127.65,36.09,127.47,32.71,128.37,30.36Z"/><g id="Group_164" data-name="Group 164"><path id="Path_316" data-name="Path 316" class="cls-2" d="M118.33,55.21c-.33-2.13.65-5.64,2.37-5.77a18.27,18.27,0,0,1,4.16.5,142.66,142.66,0,0,1,22.9,5.2c1.22.41,2.75,1,3,1.82a7.25,7.25,0,0,1-.22,2.82c-.57,2.68-2.8,2.34-5.52,1.81-3.82-.75-7.85-1.93-11.61-2.58-4-.7-7.9-1.34-11.89-2.22A5,5,0,0,1,118.33,55.21Z"/><g id="Group_163" data-name="Group 163"><path id="Path_317" data-name="Path 317" class="cls-6" d="M119.31,69.76c5.85,1,11.31,2.11,17.08,3.16,1.51.27,3.52.5,5.46.68.67.06,3,.67,3.19-.47.06-.5-.72-1-1.33-1.25a10.54,10.54,0,0,0-1.9-.54,170.11,170.11,0,0,0-19.7-4.48,44.08,44.08,0,0,0-7.76-1c-.14.93-.28,1.86-.41,2.8.42.11.83.2,1.18.27C116.7,69.28,118.14,69.57,119.31,69.76Z"/><path id="Path_318" data-name="Path 318" class="cls-6" d="M125.53,77c1.4.22,4.65.84,4.67-.63,0-1.14-2.31-1.6-3.78-2-3.13-.75-6.55-1.26-9.47-1.74-.91-.15-2.3-.53-3.49-.62-.1.77-.21,1.54-.31,2.3l.11,0A102.56,102.56,0,0,0,125.53,77Z"/><path id="Path_319" data-name="Path 319" class="cls-6" d="M137.55,85.19c.66.08,3.6.49,3.82-.54.31-1.41-2.15-1.75-2.81-2a92,92,0,0,0-11.16-2.41,112.7,112.7,0,0,0-11.73-1.7,28.11,28.11,0,0,0-3-.14c-.14,1-.28,2-.39,3,2,.34,4.07.54,6.11.78C125,83.09,130.8,84.33,137.55,85.19Z"/></g></g></g><g id="Group_171" data-name="Group 171"><g id="Group_166" data-name="Group 166"><path id="Path_320" data-name="Path 320" class="cls-4" d="M123.9,19.32c1.23-.42,3.59-.15,5.07.08a152,152,0,0,1,21.11,4.53c2,.58,6.32,1.48,7,3.64.38,1.23-.2,3.37-.48,4.36s-.84,2.92-1.67,3.43c-1.1.67-3.07.31-4.53,0-4.32-1-8.12-2-12.59-2.69a88.31,88.31,0,0,1-12.69-2.56c-1.45-.46-3-1-3.47-2.1a4.7,4.7,0,0,1-.06-2.47C121.84,22.9,121.76,20.05,123.9,19.32Z"/><path id="Path_321" data-name="Path 321" class="cls-9" d="M127.78,20.28c0,.8,1.48,1.45,2.36,1.79,1.17.45,2.25.68,3.13.94a89.6,89.6,0,0,0,13,3c1,.15,6.51,1.37,6.74-.43a1,1,0,0,0-.25-.83c-1-.33-2-.57-2.73-.78A152.12,152.12,0,0,0,129,19.4l-.48-.07C128.06,19.49,127.76,19.69,127.78,20.28Z"/></g><g id="Group_170" data-name="Group 170"><g id="Group_167" data-name="Group 167"><path id="Path_322" data-name="Path 322" class="cls-3" d="M131.54,94.36c.9-.56,2.7-.57,4.46-.47.75,0,2,.14,2,.82s-1.36.93-1.86,1a12.24,12.24,0,0,1-4.54-.43A.94.94,0,0,1,131.54,94.36Z"/><path id="Path_323" data-name="Path 323" class="cls-3" d="M138,92.58c-.42-1.66,3.32-2,3.28-.53,0,.61-1.78,1.43-2.68,1.2A.92.92,0,0,1,138,92.58Z"/><path id="Path_324" data-name="Path 324" class="cls-3" d="M142,95c-.39-.47,0-1.25.69-1.83s1.77-1.11,2.08-.36a1.64,1.64,0,0,1-.64,1.5C143.48,94.86,142.49,95.58,142,95Z"/></g><g id="Group_168" data-name="Group 168"><path id="Path_325" data-name="Path 325" class="cls-3" d="M126.25,41.3c.14,1-3.51.9-3.64.2C122.4,40.36,126.24,40.47,126.25,41.3Z"/><path id="Path_326" data-name="Path 326" class="cls-3" d="M127.64,41.15c.49-.38,2.11-.1,3.35.05a83.09,83.09,0,0,1,14.13,2.95,23.15,23.15,0,0,1,2.58.9c.71.3,2.06.75,1.91,1.61-.18,1-2,.44-2.66.3-4.83-1.07-9.13-2.35-14.1-3.59-.75-.19-1.75-.36-2.88-.65C129,42.48,126.91,42.12,127.64,41.15Z"/></g><g id="Group_169" data-name="Group 169"><path id="Path_327" data-name="Path 327" class="cls-3" d="M128.89,22.64c.54-.8-2.78-2.33-3.2-1.75C125,21.83,128.52,23.39,128.89,22.64Z"/><path id="Path_328" data-name="Path 328" class="cls-3" d="M130.07,23.38c.28.56,1.87,1,3.05,1.4a82.4,82.4,0,0,0,14,3.46,24.88,24.88,0,0,0,2.72.31c.77,0,2.18.21,2.42-.63.27-1-1.65-1.28-2.27-1.43-4.82-1.11-9.25-1.82-14.27-2.85-.75-.16-1.73-.43-2.87-.66S129.84,22.19,130.07,23.38Z"/></g></g></g></g></g></g></g></svg>